<?xml version="1.0" encoding="UTF-8"?><svg id="b" xmlns="http://www.w3.org/2000/svg" xmlns:xlink="http://www.w3.org/1999/xlink" viewBox="0 0 348.86331 348.86331"><defs><style>.f{fill:#fff;}.g{fill:#3777bc;}.h{fill:#f47a20;}.i{fill:url(#d);}.j{fill:#3163af;}</style><linearGradient id="d" x1="121.18965" y1="135.8163" x2="153.05092" y2="167.67757" gradientUnits="userSpaceOnUse"><stop offset=".00573" stop-color="#3777bc"/><stop offset="1" stop-color="#94bde5"/></linearGradient></defs><g id="c"><circle class="f" cx="174.43165" cy="174.43165" r="174.43165"/><g><g><path class="h" d="m242.42863,62.27613h-57.28039c-.60986,0-1.10425.49439-1.10425,1.10425v110.59288c0,.60986.49439,1.10425,1.10425,1.10425h57.28039c24.06458,0,34.82092-19.1908,34.82092-35.47565v-41.52399c0-20.42596-13.76538-35.80176-34.82092-35.80176Zm11.64026,76.54175c0,9.27063-5.89795,14.09796-14.09863,14.09796h-31.29723c-.60986,0-1.10425-.49439-1.10425-1.10425v-64.49327c0-.60986.49439-1.10425,1.10425-1.10425h31.29723c8.73682,0,14.09863,5.03888,14.09863,14.24994v38.35388Z"/><path class="h" d="m152.41443,73.79192c-2.44061-6.90172-8.96631-11.51578-16.28685-11.51578h-12.99143c-7.32875,0-13.85991,4.62425-16.29433,11.53687l-35.16728,99.85876c-.24174.68644.26756,1.40576.99532,1.40576h23.14758c.44887,0,.84862-.28397.99641-.70782l31.65249-90.77937c.18372-.52673.68042-.87958,1.23828-.87958.55859,0,1.05591.35382,1.23901.88153l14.45386,41.66567c.14732.42466.54747.70939.99695.70939h7.67266c5.95651,0,10.78522,4.82871,10.78522,10.78522v12.87266c0,4.00237-1.58993,7.84081-4.42003,10.67091l-1.67086,1.67086c-.2859.2859-.3833.71003-.25079,1.09202l3.92323,11.30912c.14732.42466.54747.70939.99695.70939h23.3081c.72834,0,1.23769-.72038.99487-1.40705l-35.31937-99.87856Z"/></g><path class="i" d="m147.10901,133.9808h-18.1847c-3.70005,0-7.25044,1.46025-9.87846,4.06484-4.30247,4.26412-8.75646,8.68659-12.9742,12.88868-.69048.68792-.20138,1.86572.7733,1.86572h24.23242c3.33493,0,6.03843,2.7035,6.03843,6.03843v22.13532c0,.97383,1.1774,1.46152,1.866.77292l13.74614-13.74619c2.63221-2.63222,4.11098-6.20228,4.11098-9.9248v-14.36502c0-5.37368-4.35622-9.7299-9.7299-9.7299Z"/><path class="g" d="m86.22832,210.94151h-8.95142l-1.40056,4.20169h-4.26258l6.49595-19.15473c.37581-1.10816,1.4159-1.8537,2.58604-1.8537h2.14147c1.17145,0,2.21239.74718,2.58718,1.85706l6.46706,19.15137h-4.23213l-1.43101-4.20169Zm-1.27877-3.80587l-3.0447-9.19499h-.30447l-3.01425,9.19499h6.36342Z"/><path class="g" d="m94.89405,194.13477h4.0799v17.20255h9.25589v3.80587h-13.33579v-21.00843Z"/><path class="g" d="m111.09963,215.1432v-21.00843h4.0799v21.00843h-4.0799Z"/><path class="g" d="m132.74615,210.94151h-8.95142l-1.40056,4.20169h-4.26258l6.49595-19.15473c.37581-1.10816,1.4159-1.8537,2.58604-1.8537h2.14147c1.17145,0,2.21239.74718,2.58718,1.85706l6.46706,19.15137h-4.23213l-1.43101-4.20169Zm-1.27877-3.80587l-3.0447-9.19499h-.30447l-3.01425,9.19499h6.36342Z"/><path class="g" d="m156.87831,194.13477h4.0799v21.00843h-4.6098c-1.40706,0-2.68972-.80607-3.30006-2.07386l-7.28319-15.12869h-.27402v17.20255h-4.0799v-21.00843h4.58302c1.40516,0,2.68645.80392,3.29778,2.06913l7.31226,15.13343h.27402v-17.20255Z"/><path class="g" d="m171.66389,197.75796c-1.56383,0-2.83157,1.26774-2.83157,2.83157v8.06845c-.12179,2.67934,1.09609,2.83157,2.83157,2.86202h.91341c2.0704,0,4.20169-.09134,6.36342-.24358v3.62319c-2.28352.24358-3.89722.36536-4.84107.39581l-.18268.63939c.94386-.12179,2.37487,1.00475,2.31397,2.49665,0,2.16174-1.43101,3.22738-4.32347,3.22738-.57849,0-1.21788-.06089-1.85727-.18268v-2.64889c.57849.15223,1.15699.21313,1.79637.21313.70028,0,1.30922-.21313,1.30922-.66983,0-.24949-.14197-.47058-.84276-.58573-.72483-.1191-1.19776-.83173-1.02391-1.54541l.22253-.91356h-.30447c-4.5975,0-6.45476-1.97905-6.45476-6.63745v-8.0989c0-4.65839,1.85727-6.63745,6.45476-6.63745h1.67458c.48715,0,1.06564,0,1.73548.03045.63939.03045,2.10084.15223,4.32347.39581v3.62319c-2.16174-.15223-4.29303-.24358-6.36342-.24358h-.91341Z"/><path class="g" d="m196.10959,210.94151h-8.95142l-1.40056,4.20169h-4.26258l6.49595-19.15473c.37581-1.10816,1.4159-1.8537,2.58604-1.8537h2.14147c1.17145,0,2.21239.74718,2.58718,1.85706l6.46706,19.15137h-4.23213l-1.43101-4.20169Zm-1.27877-3.80587l-3.0447-9.19499h-.30447l-3.01425,9.19499h6.36342Z"/><path class="g" d="m82.87915,245.1702h-10.3455v-21.00843h10.3455c4.62794,0,6.48521,2.0095,6.48521,6.66789v7.73354c0,2.34442-.48715,4.019-1.4919,5.0542-1.00475,1.0352-2.67934,1.5528-4.99331,1.5528Zm2.40531-14.34054c0-2.28352-.60894-2.86202-2.83157-2.86202h-5.83935v13.39668h5.83935c2.22263,0,2.83157-.60894,2.83157-2.83157v-7.70309Z"/><path class="g" d="m107.01779,245.1702h-13.88383v-21.00843h13.88383v3.80587h-9.80393v4.65839h8.67739v3.80587h-8.67739v4.93241h9.80393v3.80587Z"/><path class="g" d="m123.37784,243.03891h-2.20054c-1.08324,0-2.03969-.70682-2.35766-1.74235l-4.09292-13.32892h-.18268v17.20255h-4.0799v-21.00843h3.82234c1.89095,0,3.56128,1.23201,4.11969,3.03863l3.71918,12.03263h.30447l3.72923-12.06514c.55244-1.78729,2.20489-3.00612,4.07561-3.00612h3.85636v21.00843h-4.0799v-17.20255h-.18268l-4.09292,13.32892c-.31798,1.03552-1.27442,1.74235-2.35766,1.74235Z"/><path class="g" d="m148.16205,245.35288h-3.77543c-4.62794,0-6.48521-2.0095-6.48521-6.66789v-8.06845c0-4.65839,1.85727-6.63745,6.48521-6.63745h3.77543c4.62794,0,6.51566,1.97905,6.51566,6.63745v8.06845c0,2.34442-.5176,4.019-1.52235,5.08465s-2.67934,1.58324-4.99331,1.58324Zm-.36536-17.56792h-3.0447c-1.21788,0-2.10084.15223-2.43576.85252s-.33492,1.40056-.33492,1.97905v8.06845c0,1.12654.15223,1.85727.4567,2.19218s.66983.5176,1.06564.57849.82207.09134,1.24833.09134h3.0447c2.55755,0,2.80112-.94386,2.80112-2.86202v-8.06845c0-.88296-.09134-1.52235-.27402-1.91816-.39581-.76117-1.30922-.91341-2.5271-.91341Z"/><path class="g" d="m172.47106,228.02854c-2.16174-.15223-4.29303-.24358-6.36342-.24358h-.91341c-2.28352,0-2.83157.54805-2.83157,2.83157v8.06845c-.12179,2.67934,1.09609,2.83157,2.83157,2.86202h.91341c2.0704,0,4.20169-.09134,6.36342-.24358v3.62319c-1.64414.15223-2.83157.27402-3.5623.33492s-1.5528.09134-2.49665.09134h-1.67458c-4.5975,0-6.45476-1.97905-6.45476-6.63745v-8.0989c0-4.65839,1.85727-6.63745,6.45476-6.63745h1.67458c.48715,0,1.06564,0,1.73548.03045.63939.03045,2.10084.15223,4.32347.39581v3.62319Z"/><path class="g" d="m190.75416,232.68693c0,1.58324-.6096,2.44958-1.4919,3.31872s-1.85727,1.30922-1.85727,1.30922l3.85576,7.85533h-4.46599l-3.27726-7.00281h-3.66336v7.00281h-4.0799v-21.00843h9.52991c3.37962,0,5.45001,1.88771,5.45001,5.17599v3.34917Zm-10.90003,1.67458h3.41006c1.70503,0,1.70503.06089,2.64889-.54805.48715-.33492.76117-.60894.76117-1.58324v-2.46621c0-1.30922-.48715-1.79637-1.79637-1.79637h-5.02375v6.39387Z"/><path class="g" d="m212.9876,224.16177h16.38049v3.80587h-6.15029v17.20255h-4.0799v-17.20255h-6.15029v-3.80587Z"/><path class="g" d="m232.38169,245.1702v-21.00843h4.0799v21.00843h-4.0799Z"/><path class="g" d="m254.41754,228.02854c-2.16174-.15223-4.29303-.24358-6.36342-.24358h-.91341c-2.28352,0-2.83157.54805-2.83157,2.83157v8.06845c-.12179,2.67934,1.09609,2.83157,2.83157,2.86202h.91341c2.0704,0,4.20169-.09134,6.36342-.24358v3.62319c-1.64414.15223-2.83157.27402-3.5623.33492s-1.5528.09134-2.49665.09134h-1.67458c-4.5975,0-6.45476-1.97905-6.45476-6.63745v-8.0989c0-4.65839,1.85727-6.63745,6.45476-6.63745h1.67458c.48715,0,1.06564,0,1.73548.03045.63939.03045,2.10084.15223,4.32347.39581v3.62319Z"/><path class="g" d="m271.58641,240.96852h-8.95142l-1.40056,4.20169h-4.26258l6.49595-19.15473c.37581-1.10816,1.4159-1.8537,2.58604-1.8537h2.14147c1.17145,0,2.21239.74718,2.58718,1.85706l6.46706,19.15137h-4.23213l-1.43101-4.20169Zm-1.27877-3.80587l-3.0447-9.19499h-.30447l-3.01425,9.19499h6.36342Z"/><g><path class="g" d="m204.62455,224.16177h-2.14149c-1.1701,0-2.21016.74555-2.58605,1.8537l-6.4959,19.15473h4.26258l1.40056-4.20169h8.95142l1.43101,4.20169h4.23213l-6.46707-19.15137c-.37476-1.1099-1.41579-1.85706-2.58719-1.85706Zm-4.25108,13.00087l3.01425-9.19499h.30447l3.0447,9.19499h-6.36342Z"/><polygon class="g" points="208.88243 218.58183 204.57095 218.58183 201.34777 222.33495 205.30588 222.33495 208.88243 218.58183"/></g><g><path class="g" d="m148.70545,263.28664v22.81851h22.81848v-22.81851h-22.81848Zm21.71722,21.7173h-20.61607v-20.6161h20.61607v20.6161Z"/><polygon class="g" points="156.95749 277.91415 152.7038 277.91415 153.77671 278.98695 149.3355 281.86547 149.3355 285.40656 153.13574 285.40656 155.89006 281.10039 156.95749 282.16776 156.95749 277.91415"/><polygon class="g" points="163.27177 271.50004 167.52546 271.50004 166.45255 270.42723 170.89376 267.54871 170.89376 264.00762 167.09352 264.00762 164.3392 268.3138 163.27177 267.24643 163.27177 271.50004"/><circle class="g" cx="160.11469" cy="274.69589" r="4.40032"/></g><g><path class="h" d="m130.51468,276.55484c-.31784,1.23152-.67802,2.12853-1.21964,2.6575-.51613.51039-1.1704.81003-2.15304.81003h-.59813l1.78942-6.93639h.59718c.98265,0,1.48268.29983,1.73597.81022.27014.52782.16687,1.42483-.15174,2.65865m-27.80724-2.18294c-.23144.89701-.95276,1.37272-2.53239,1.37272h-.30003l.68531-2.65865h.64105c1.32405,0,1.7375.38758,1.50606,1.28593m27.63041-4.17256h-7.24217l-1.85896,7.20614c-.18603-.83206-.82382-1.48269-1.99499-1.92487-1.41946-.54602-3.48515-.89816-4.58735-1.17941-.60062-.15844-.91406-.35175-.79604-.81022.10077-.38662.61787-.73837,1.6009-.73837.79029,0,1.25662.26381,1.07289,1.05545h5.46864c.76405-2.95695-1.86682-3.94323-5.71196-3.94323-3.74916,0-6.43309,1.03591-7.62303,2.90388-.25098-1.54304-1.67466-2.56937-4.49768-2.56937h-8.97257l-3.27766,12.70985h6.11008l1.10315-4.27793h2.00706c3.59014,0,5.89014-1.19435,6.93869-3.05427.22665.82976.95372,1.44878,2.38066,1.8216l4.06508,1.0566c.54066.1412.9246.38796.80294.86348-.14541.5625-.8449,1.03821-1.7419,1.03821-.57744,0-.92134-.15978-1.09224-.40501-.16668-.26516-.16208-.61672-.07089-.96885h-5.85335c-.85314,3.30927,2.31992,4.26069,6.03631,4.26069,3.54991,0,6.47122-.86578,7.86827-2.8692l-.65369,2.53469h7.60407c4.74445,0,8.38938-2.37644,9.38027-6.21315.97096-3.76755-.29082-6.4967-6.46451-6.4967"/><path class="h" d="m81.44282,266.49326c-.25941.25922-.34811.54947-.24657.79604.09848.23967.36363.38796.6899.38796h5.04428c.11648,0,.19906.02912.24408.08775.06361.07874.05096.20634.03027.29887l-2.89832,11.4494c-.05.46881-.71864.96406-1.30336.96406h-3.76851c-.67266,0-1.3139.51403-1.49093,1.19569l-.77535,3.16539c-.06955.32895-.00345.63779.18622.87287.07414.09139.16553.16074.2665.21879h-1.06407c-.29025,0-.54047-.11112-.7037-.31133-.16304-.20021-.21956-.46881-.16093-.74987l1.14243-4.56857c.12836-.60158.73282-1.09262,1.34877-1.09262l3.72559.00115c.67956,0,1.35164-.53932,1.49648-1.20144l2.07526-8.37424c.02222-.11093.03832-.24983-.04272-.34945-.06035-.07529-.15978-.11112-.30424-.11112h-5.89358c-.51652,0-.8857-.17588-1.01311-.48471-.12836-.30807.01284-.70964.37723-1.07442l8.69707-8.71565c.20845-.20576.48625-.32052.78359-.32052.29638,0,.57399.11246.78493.32052l.23374.21553-7.46095,7.37991Zm12.27935,1.18745h4.66456c.24887,0,.52073-.20366.63204-.47226.09234-.22435.05422-.44467-.10557-.60426l-7.91578-7.80792c-.2278-.22703-.55311-.35769-.89222-.35769-.33681,0-.65063.12625-.88206.35769l-.21649.21515-.23718-.21764c-.23622-.23163-.54966-.35999-.88436-.35999-.33451,0-.64929.12836-.88532.36344l-.17588.17722-.2073-.18067c-.23508-.23163-.54966-.35999-.88321-.35999-.33662,0-.65254.1297-.88762.36459l-9.83375,9.79199c-.38528.44333-.49046,1.01522-.27435,1.49303.20826.45502.6717.72707,1.23976.72707l6.93658.0023c.07414,0,.17109.01284.22205.0774.0523.06859.03928.17147.01973.2481l-1.36812,5.43627c-.12951.60062-.73473,1.08917-1.35298,1.08917h-3.7003c-.67956,0-1.34494.53357-1.48269,1.18745l-1.52311,5.98631c-.0684.32627-.00249.63664.18871.87153.19082.23603.48012.36459.81463.36459h3.21904c.00575,0,.0113.0023.01763.0023h8.70473c1.052-.01609,2.04748-.95851,2.28275-1.79421l4.05205-16.02583c.10173-.38547.33566-.5738.71404-.57514"/></g><g id="e"><g><path class="g" d="m189.45906,274.69683c0-2.02269-.00019-4.04539.00022-6.06808.00006-.30439.00448-.30895.30846-.30901,2.00503-.00035,4.01016-.01195,6.01503.00542.91439.00792,1.82499.09236,2.69283.42321,1.57419.60013,2.57521,1.7477,3.04559,3.32733.5333,1.79094.48823,3.59562-.18635,5.3481-.80844,2.10023-2.33488,3.32132-4.59891,3.57763-.49078.05556-.98383.07351-1.47751.07362-1.81337.0004-3.62673.00034-5.4401-.00001-.35733-.00007-.35911-.00208-.35916-.35424-.00023-2.00798-.00011-4.01597-.00011-6.02395Zm2.9776-.01915c0,1.29422.00341,2.58847-.00359,3.88266-.00108.19975.05891.26979.2641.26766.92112-.00957,1.84271.00988,2.76351-.00988,1.3505-.02898,2.31731-.66871,2.8407-1.91183.56257-1.33617.54916-2.72041.2422-4.11315-.11026-.50027-.29458-.97439-.63876-1.36484-.55349-.62789-1.30623-.81312-2.09246-.84074-1.03056-.03619-2.06325-.00788-3.09485-.02097-.22924-.00291-.28643.07804-.28501.29464.00839,1.27211.00412,2.5443.00416,3.81646Z"/><path class="g" d="m212.10659,272.12486c-.42021-.00025-.84042-.00154-1.26062.00061-.11475.00059-.20631-.02316-.22629-.15478-.13905-.91606-.74358-1.39151-1.58143-1.60975-1.05063-.27366-2.10172-.27736-3.12243.14143-.4573.18763-.79782.50099-.89225,1.01619-.08029.43807.04967.79773.40969,1.06816.3397.25517.74487.35059,1.14469.44854,1.24525.30505,2.50836.5276,3.76139.79695.78765.16932,1.56442.378,2.25927.80287,1.13442.69364,1.5572,1.78629,1.44085,3.00631-.1543,1.61787-1.1758,2.55639-2.56888,3.17224-.79571.35176-1.64671.48254-2.5139.54434-1.11848.07971-2.22423.01821-3.31496-.2323-1.04446-.23988-1.99994-.66636-2.75339-1.4571-.61477-.64519-.92638-1.41967-.95905-2.30984-.00711-.1938.06474-.25784.25565-.25621.81087.00692,1.62184.00431,2.43276.00162.13912-.00046.2399.02087.26821.18695.18935,1.1109.92459,1.6335,1.97509,1.81533.93368.16161,1.8637.13596,2.78577-.07051.41354-.0926.7959-.26253,1.09688-.58164.58701-.62239.43804-1.52149-.3262-1.90468-.63322-.3175-1.32445-.4436-2.01066-.58168-1.20557-.24259-2.42511-.42203-3.60242-.79184-.42917-.13481-.85203-.28514-1.23657-.52639-.71803-.45048-1.17481-1.08423-1.33189-1.91761-.23295-1.23589.03409-2.32944.93348-3.24917.66798-.68308,1.48619-1.08431,2.4018-1.28295,1.59365-.34574,3.18763-.3606,4.76318.11674.75567.22894,1.45239.58175,2.04782,1.10364.73358.64298,1.09719,1.47682,1.19666,2.43584.02031.19582-.04541.2795-.25598.27273-.40505-.01302-.81081-.00379-1.21627-.00404Z"/><path class="g" d="m186.99038,272.56837c-.39812,0-.79678-.01239-1.19416.0047-.23334.01004-.35574-.06075-.43603-.29106-.19471-.5585-.49763-1.05085-1.00516-1.38812-.40723-.27062-.8633-.40666-1.34362-.47236-.72757-.09952-1.44153-.06838-2.12244.23718-1.00496.45097-1.56521,1.27185-1.84529,2.29442-.32651,1.1921-.33554,2.39928-.03248,3.5985.39561,1.56544,1.65433,2.52623,3.27466,2.53982.79657.00668,1.53874-.14297,2.17119-.66143.46772-.38341.73041-.90025.91598-1.45653.07215-.21627.182-.27706.39887-.27405.81083.01122,1.62192.00392,2.43291.00481.30119.00033.3205.01627.24971.29603-.53644,2.11981-1.85658,3.52417-3.95467,4.12287-1.70082.48534-3.42352.42354-5.08121-.21745-2.07711-.80317-3.23598-2.38126-3.625-4.53898-.24624-1.36577-.20079-2.72893.22042-4.05723.65106-2.05317,2.03843-3.39711,4.11426-3.94414,1.97549-.52059,3.94365-.40487,5.79499.51733,1.30847.65179,2.16824,1.71957,2.54287,3.14614.14087.53645.12902.53955-.41413.53956-.35389,0-.70777,0-1.06166,0Z"/><path class="g" d="m231.62107,274.63102c-.00002-2.05906-.00016-4.11812.00011-6.17718.00005-.34294.00617-.34967.34172-.34976,1.76879-.00044,3.53766-.01029,5.30634.00392.95474.00767,1.87266.1798,2.6943.71787.65163.42673,1.09784,1.00613,1.3083,1.74526.35088,1.23227.33929,2.47196-.06437,3.69077-.37031,1.11808-1.23218,1.69975-2.31851,2.00571-.54177.15259-1.09876.21581-1.6596.22246-.86216.01023-1.7246.00949-2.58677.00005-.21345-.00234-.27802.06717-.27684.27783.00761,1.36041.0042,2.72088.00352,4.08133-.00015.29661-.01591.31296-.31109.3135-.70751.0013-1.41503.00124-2.12255.00004-.29706-.0005-.31416-.01746-.31425-.3105-.00057-2.07377-.0003-4.14754-.00032-6.2213Zm2.74891-2.31851c0,.56633.00087,1.13265-.00069,1.69897-.00033.1225.0153.22031.17446.21727.91315-.01749,1.82832.05014,2.73934-.04961.81141-.08884,1.32804-.59484,1.46159-1.39575.03541-.21236.03878-.42401.03799-.63713-.00399-1.07178-.64167-1.72867-1.71392-1.7445-.81801-.01208-1.63639.00123-2.45448-.00779-.2017-.00223-.25017.08058-.24746.26373.00812.5515.00293,1.10319.00319,1.6548Z"/><path class="g" d="m221.00105,274.61149c-.00001-2.05979-.00012-4.11958.00012-6.17936.00004-.32718.00079-.32807.33415-.32813,1.76204-.0003,3.52411-.00671,5.2861.00312.71038.00397,1.40894.09837,2.07355.37814,1.1682.49174,1.85979,1.36381,2.08499,2.60034.15832.86935.13914,1.74029-.03381,2.60841-.27927,1.40171-1.15755,2.22119-2.50945,2.58134-.5364.1429-1.08536.20928-1.63917.21511-.85513.009-1.7105.01015-2.56556-.00083-.22601-.0029-.28968.07147-.28833.29144.00834,1.35352.0045,2.70712.00383,4.0607-.00015.30734-.01401.3208-.32627.3212-.70039.00089-1.40079.00108-2.10118-.00013-.3075-.00053-.31872-.01272-.31878-.32784-.00038-2.0745-.0002-4.149-.00021-6.2235Zm2.74703-2.29147c0,.55845.00073,1.11689-.00055,1.67534-.00029.12767.00862.23704.18203.23361.91227-.01802,1.82663.05026,2.73671-.05037.7411-.08195,1.25937-.54823,1.42567-1.27445.10312-.45034.0938-.90214-.01724-1.35291-.11827-.48014-.41202-.80194-.86419-.98815-.25459-.10484-.52053-.16173-.7954-.16294-.80267-.00352-1.60544.00335-2.40801-.00654-.20925-.00258-.26542.07875-.26229.27317.00886.55096.00311,1.10215.00328,1.65324Z"/><path class="g" d="m217.58843,276.49425c-.52303.00009-1.04614-.00489-1.56905.00282-.18025.00266-.24815-.06007-.24591-.24271.00748-.61.00674-1.22018.00039-1.8302-.00179-.17204.06446-.23406.23386-.23344,1.06078.00389,2.12159.00391,3.18237-.00004.16924-.00063.23567.06051.23385.23296-.00652.61737-.00567,1.23487-.0006,1.85227.00133.16126-.06111.22185-.22165.22026-.53771-.0053-1.07551-.00201-1.61327-.00193Z"/></g></g><g><path class="j" d="m263.50727,277.87528h-.40248v.61845h.40248c.17063,0,.30897-.13835.30897-.30897s-.13835-.30897-.30897-.30897v-.00051h0Z"/><path class="j" d="m268.16822,277.87528h-.40248v.61845h.40248c.17062,0,.30897-.13835.30897-.30897s-.13835-.30897-.30897-.30897v-.00051Z"/><path class="j" d="m274.6292,279.26821l-1.08396,1.26611-1.07422-1.26432v2.24503h-1.57944v-4.91586h1.30967l1.34938,1.67295,1.34938-1.67295h1.30967v2.10028c.66892-1.56509,1.03989-3.28826,1.03989-5.09802,0-7.17166-5.81382-12.98625-12.98625-12.98625-4.53183,0-8.51924,2.32292-10.84216,5.84149.13143,2.0101,1.36705,3.77272,3.22318,4.38144v-5.2484h2.8845v5.26787c1.96245-.58848,3.27673-2.36545,3.30952-4.48751h2.77766c.15039,3.59774-2.49867,6.79787-6.08718,7.42888v7.71556h-2.8845v-7.76603c-2.09157-.43758-3.84856-1.7224-4.93303-3.48117-.28181,1.06398-.43399,2.18073-.43399,3.3336,0,7.17166,5.81383,12.98625,12.98625,12.98625,4.2349,0,7.99558-2.02855,10.3664-5.16565v-2.15485.00179l-.00077-.00026Zm-10.78836.54032h-.73605v1.70754h-1.60429v-4.91586h2.34034c.88259,0,1.60429.7217,1.60429,1.60429s-.7217,1.60429-1.60429,1.60429h0v-.00026Zm4.66044,0h-.73605v1.70754h-1.60429v-4.91586h2.34034c.88259,0,1.60429.7217,1.60429,1.60429s-.7217,1.60429-1.60429,1.60429v-.00026Z"/></g></g></g></svg>