<svg width="512" height="512" viewBox="0 0 512 512" fill="none" xmlns="http://www.w3.org/2000/svg">
<g clip-path="url(#clip0)">
<rect width="512" height="512" fill="white"/>
<path d="M234.928 133V378.998C234.928 381.76 237.167 383.998 239.928 383.998H272.07C274.832 383.998 277.07 381.76 277.07 378.998V133C277.07 130.239 274.832 128 272.07 128H239.928C237.167 128 234.928 130.239 234.928 133Z" fill="black"/>
<path d="M351.84 176.23L139.088 299.224C136.698 300.606 135.878 303.666 137.257 306.058L153.333 333.939C154.712 336.332 157.769 337.15 160.159 335.768L372.911 212.774C375.301 211.392 376.121 208.332 374.742 205.94L358.666 178.059C357.287 175.667 354.23 174.848 351.84 176.23Z" fill="black"/>
<path d="M372.911 299.224L160.16 176.23C157.769 174.848 154.713 175.667 153.333 178.059L137.257 205.94C135.878 208.332 136.698 211.392 139.089 212.774L351.84 335.768C354.231 337.15 357.287 336.331 358.666 333.939L374.742 306.058C376.121 303.666 375.301 300.606 372.911 299.224Z" fill="black"/>
</g>
<defs>
<clipPath id="clip0">
<rect width="512" height="512" fill="white"/>
</clipPath>
</defs>
</svg>
