<svg width="3150" height="3150" viewBox="0 0 3150 3150" fill="none" xmlns="http://www.w3.org/2000/svg">
<rect width="3150" height="3150" fill="white"/>
<path d="M401.198 1637.89C399.541 1637.89 398.198 1639.23 398.198 1640.89V1731C398.198 1733.76 395.959 1736 393.198 1736H361C358.239 1736 356 1733.76 356 1731V1485C356 1482.24 358.239 1480 361 1480H441.626C454.402 1480.12 466.182 1482.05 476.966 1485.8C487.867 1489.44 497.244 1494.71 505.098 1501.63C512.951 1508.42 519.046 1516.75 523.383 1526.59C527.837 1536.32 530.065 1547.34 530.065 1559.65C530.065 1571.6 527.837 1582.39 523.383 1592C519.046 1601.61 512.951 1609.82 505.098 1616.61C497.244 1623.41 487.867 1628.63 476.966 1632.26C466.182 1635.9 454.402 1637.77 441.626 1637.89H401.198ZM398.198 1600.78C398.198 1602.44 399.541 1603.78 401.198 1603.78H441.626C448.776 1603.78 455.164 1602.72 460.791 1600.61C466.417 1598.39 471.222 1595.34 475.208 1591.47C479.193 1587.6 482.241 1582.97 484.351 1577.58C486.46 1572.19 487.516 1566.33 487.516 1560C487.516 1553.32 486.46 1547.16 484.351 1541.54C482.241 1535.91 479.193 1531.11 475.208 1527.12C471.222 1523.02 466.417 1519.85 460.791 1517.63C455.164 1515.4 448.776 1514.23 441.626 1514.11H401.198C399.541 1514.11 398.198 1515.45 398.198 1517.11V1600.78Z" fill="black"/>
<path d="M703.486 1680.9C702.742 1678.33 700.393 1676.57 697.723 1676.57H626.713C624.055 1676.57 621.714 1678.32 620.959 1680.87L605.92 1731.7C605.166 1734.25 602.825 1736 600.167 1736H565.174C563.136 1736 561.691 1734.01 562.32 1732.07L642.862 1484.15C643.665 1481.67 645.969 1480 648.568 1480H676.922C679.534 1480 681.846 1481.69 682.639 1484.18L761.643 1732.09C762.26 1734.02 760.816 1736 758.785 1736H723.969C721.298 1736 718.95 1734.23 718.206 1731.67L703.486 1680.9ZM634.096 1636.67C633.527 1638.6 634.968 1640.53 636.973 1640.53H687.692C689.689 1640.53 691.128 1638.61 690.574 1636.69L664.569 1546.7C664.014 1544.78 661.297 1544.77 660.73 1546.69L634.096 1636.67Z" fill="black"/>
<path d="M917.815 1639.5C916.81 1637.44 914.717 1636.13 912.422 1636.13H876.271C874.614 1636.13 873.271 1637.47 873.271 1639.13V1731C873.271 1733.76 871.033 1736 868.271 1736H836.074C833.312 1736 831.074 1733.76 831.074 1731V1485C831.074 1482.24 833.312 1480 836.074 1480H911.952C925.081 1480.12 937.154 1481.82 948.172 1485.1C959.307 1488.26 968.919 1493.07 977.007 1499.52C985.095 1505.85 991.366 1513.82 995.82 1523.43C1000.27 1533.04 1002.5 1544.29 1002.5 1557.19C1002.5 1565.86 1001.33 1573.77 998.985 1580.92C996.758 1587.96 993.593 1594.34 989.49 1600.09C985.388 1605.83 980.465 1610.87 974.721 1615.21C969.782 1618.94 964.409 1622.19 958.603 1624.97C957.054 1625.71 956.381 1627.57 957.154 1629.11L1008.81 1731.65C1009.82 1733.64 1008.37 1736 1006.13 1736H969.874C966.815 1736 964.024 1734.25 962.684 1731.5L917.815 1639.5ZM873.271 1599.02C873.271 1600.68 874.614 1602.02 876.271 1602.02H912.128C919.161 1602.02 925.608 1601.02 931.469 1599.03C937.33 1597.04 942.37 1594.23 946.59 1590.59C950.927 1586.84 954.267 1582.33 956.611 1577.05C958.956 1571.66 960.128 1565.51 960.128 1558.59C960.128 1551.44 959.014 1545.11 956.787 1539.6C954.56 1534.09 951.337 1529.46 947.117 1525.71C943.014 1521.96 937.974 1519.15 931.996 1517.27C926.018 1515.28 919.337 1514.23 911.952 1514.11H876.271C874.614 1514.11 873.271 1515.45 873.271 1517.11V1599.02Z" fill="black"/>
<path d="M1208.03 1680.9C1207.28 1678.33 1204.93 1676.57 1202.26 1676.57H1131.25C1128.6 1676.57 1126.26 1678.32 1125.5 1680.87L1110.46 1731.7C1109.71 1734.25 1107.37 1736 1104.71 1736H1069.72C1067.68 1736 1066.23 1734.01 1066.86 1732.07L1147.4 1484.15C1148.21 1481.67 1150.51 1480 1153.11 1480H1181.46C1184.08 1480 1186.39 1481.69 1187.18 1484.18L1266.19 1732.09C1266.8 1734.02 1265.36 1736 1263.33 1736H1228.51C1225.84 1736 1223.49 1734.23 1222.75 1731.67L1208.03 1680.9ZM1138.64 1636.67C1138.07 1638.6 1139.51 1640.53 1141.51 1640.53H1192.23C1194.23 1640.53 1195.67 1638.61 1195.12 1636.69L1169.11 1546.7C1168.56 1544.78 1165.84 1544.77 1165.27 1546.69L1138.64 1636.67Z" fill="black"/>
<path d="M1794.58 1509.81C1794.58 1512.57 1792.34 1514.81 1789.58 1514.81H1718.99C1717.33 1514.81 1715.99 1516.15 1715.99 1517.81V1731C1715.99 1733.76 1713.75 1736 1710.99 1736H1678.97C1676.2 1736 1673.97 1733.76 1673.97 1731V1517.81C1673.97 1516.15 1672.62 1514.81 1670.97 1514.81H1600.9C1598.14 1514.81 1595.9 1512.57 1595.9 1509.81V1485C1595.9 1482.24 1598.14 1480 1600.9 1480H1789.58C1792.34 1480 1794.58 1482.24 1794.58 1485V1509.81Z" fill="black"/>
<path d="M2034.11 1624.52C2034.11 1639.64 2032.18 1654.18 2028.31 1668.13C2024.44 1681.96 2018.64 1694.21 2010.9 1704.87C2003.29 1715.42 1993.67 1723.86 1982.07 1730.19C1970.58 1736.41 1957.1 1739.51 1941.63 1739.51C1926.28 1739.51 1912.91 1736.35 1901.54 1730.02C1890.17 1723.69 1880.68 1715.25 1873.06 1704.7C1865.56 1694.03 1859.87 1681.78 1856 1667.95C1852.25 1654.12 1850.38 1639.64 1850.38 1624.52V1591.82C1850.38 1581.74 1851.2 1571.89 1852.84 1562.28C1854.6 1552.67 1857.12 1543.64 1860.4 1535.21C1863.8 1526.65 1867.96 1518.8 1872.88 1511.65C1877.92 1504.38 1883.78 1498.17 1890.47 1493.01C1897.26 1487.85 1904.88 1483.81 1913.32 1480.88C1921.88 1477.95 1931.26 1476.48 1941.45 1476.48C1956.93 1476.48 1970.41 1479.65 1981.89 1485.97C1993.5 1492.3 2003.17 1500.8 2010.9 1511.47C2018.64 1522.02 2024.44 1534.27 2028.31 1548.22C2032.18 1562.16 2034.11 1576.7 2034.11 1591.82V1624.52ZM1991.74 1591.47C1991.62 1581.86 1990.74 1572.3 1989.1 1562.81C1987.46 1553.32 1984.71 1544.88 1980.84 1537.49C1976.97 1529.99 1971.81 1523.95 1965.37 1519.38C1959.04 1514.69 1951.07 1512.35 1941.45 1512.35C1931.96 1512.35 1924.05 1514.69 1917.72 1519.38C1911.51 1523.95 1906.52 1529.99 1902.77 1537.49C1899.14 1544.99 1896.56 1553.49 1895.04 1562.99C1893.63 1572.36 1892.87 1581.86 1892.75 1591.47V1624.52C1892.87 1634.14 1893.69 1643.69 1895.21 1653.18C1896.74 1662.56 1899.32 1671.06 1902.95 1678.68C1906.7 1686.18 1911.68 1692.27 1917.89 1696.96C1924.22 1701.65 1932.14 1704 1941.63 1704C1951.24 1704 1959.21 1701.65 1965.54 1696.96C1971.99 1692.27 1977.15 1686.18 1981.02 1678.68C1984.88 1671.18 1987.58 1662.68 1989.1 1653.18C1990.74 1643.69 1991.62 1634.14 1991.74 1624.52V1591.47Z" fill="black"/>
<path d="M2116.74 1736C2113.42 1736 2110.74 1733.31 2110.74 1730V1486C2110.74 1482.68 2113.42 1480 2116.74 1480H2173.33C2190.91 1480.11 2206.68 1483.04 2220.63 1488.79C2234.69 1494.53 2246.59 1502.62 2256.32 1513.05C2266.16 1523.48 2273.73 1535.97 2279 1550.5C2284.27 1564.92 2286.97 1580.92 2287.09 1598.5V1617.84C2286.97 1635.42 2284.27 1651.48 2279 1666.02C2273.73 1680.44 2266.22 1692.86 2256.49 1703.29C2246.77 1713.61 2234.99 1721.64 2221.15 1727.38C2207.32 1733.12 2191.79 1736 2174.56 1736H2116.74ZM2156.64 1514.11C2154.98 1514.11 2153.64 1515.45 2153.64 1517.11V1699.06C2153.64 1700.72 2154.98 1702.06 2156.64 1702.06H2174.56C2186.17 1701.94 2196.3 1699.89 2204.98 1695.91C2213.65 1691.81 2220.86 1686.12 2226.6 1678.85C2232.47 1671.47 2236.8 1662.62 2239.62 1652.3C2242.55 1641.99 2244.07 1630.5 2244.19 1617.84V1598.15C2244.07 1585.84 2242.55 1574.59 2239.62 1564.39C2236.8 1554.19 2232.47 1545.4 2226.6 1538.02C2220.74 1530.52 2213.36 1524.71 2204.45 1520.61C2195.66 1516.39 2185.29 1514.22 2173.33 1514.11H2156.64Z" fill="black"/>
<path d="M2538.66 1624.52C2538.66 1639.64 2536.72 1654.18 2532.85 1668.13C2528.99 1681.96 2523.18 1694.21 2515.45 1704.87C2507.83 1715.42 2498.22 1723.86 2486.61 1730.19C2475.12 1736.41 2461.64 1739.51 2446.17 1739.51C2430.82 1739.51 2417.45 1736.35 2406.08 1730.02C2394.71 1723.69 2385.22 1715.25 2377.6 1704.7C2370.1 1694.03 2364.41 1681.78 2360.55 1667.95C2356.8 1654.12 2354.92 1639.64 2354.92 1624.52V1591.82C2354.92 1581.74 2355.74 1571.89 2357.38 1562.28C2359.14 1552.67 2361.66 1543.64 2364.94 1535.21C2368.34 1526.65 2372.5 1518.8 2377.43 1511.65C2382.47 1504.38 2388.33 1498.17 2395.01 1493.01C2401.81 1487.85 2409.43 1483.81 2417.86 1480.88C2426.42 1477.95 2435.8 1476.48 2446 1476.48C2461.47 1476.48 2474.95 1479.65 2486.44 1485.97C2498.04 1492.3 2507.71 1500.8 2515.45 1511.47C2523.18 1522.02 2528.99 1534.27 2532.85 1548.22C2536.72 1562.16 2538.66 1576.7 2538.66 1591.82V1624.52ZM2496.28 1591.47C2496.16 1581.86 2495.29 1572.3 2493.64 1562.81C2492 1553.32 2489.25 1544.88 2485.38 1537.49C2481.51 1529.99 2476.36 1523.95 2469.91 1519.38C2463.58 1514.69 2455.61 1512.35 2446 1512.35C2436.5 1512.35 2428.59 1514.69 2422.26 1519.38C2416.05 1523.95 2411.07 1529.99 2407.32 1537.49C2403.68 1544.99 2401.1 1553.49 2399.58 1562.99C2398.17 1572.36 2397.41 1581.86 2397.29 1591.47V1624.52C2397.41 1634.14 2398.23 1643.69 2399.75 1653.18C2401.28 1662.56 2403.86 1671.06 2407.49 1678.68C2411.24 1686.18 2416.22 1692.27 2422.44 1696.96C2428.77 1701.65 2436.68 1704 2446.17 1704C2455.78 1704 2463.75 1701.65 2470.08 1696.96C2476.53 1692.27 2481.69 1686.18 2485.56 1678.68C2489.43 1671.18 2492.12 1662.68 2493.64 1653.18C2495.29 1643.69 2496.16 1634.14 2496.28 1624.52V1591.47Z" fill="black"/>
<path d="M2750.31 1670.06C2750.31 1663.97 2749.02 1658.63 2746.44 1654.06C2743.98 1649.37 2740.41 1645.27 2735.72 1641.75C2731.15 1638.24 2725.64 1635.19 2719.19 1632.61C2712.86 1629.92 2705.95 1627.45 2698.44 1625.23C2688.36 1622.3 2678.4 1618.66 2668.55 1614.33C2658.82 1609.99 2650.09 1604.71 2642.36 1598.5C2634.74 1592.17 2628.52 1584.85 2623.72 1576.52C2619.03 1568.08 2616.69 1558.36 2616.69 1547.34C2616.69 1536.32 2619.03 1526.47 2623.72 1517.8C2628.52 1509.01 2634.91 1501.56 2642.88 1495.47C2650.85 1489.37 2660.11 1484.69 2670.66 1481.4C2681.21 1478.12 2692.23 1476.48 2703.72 1476.48C2716.03 1476.48 2727.51 1478.41 2738.18 1482.28C2748.96 1486.03 2758.34 1491.37 2766.31 1498.28C2774.4 1505.08 2780.79 1513.29 2785.48 1522.9C2789.48 1531 2791.81 1539.86 2792.48 1549.5C2792.68 1552.27 2790.41 1554.55 2787.63 1554.55H2755.97C2752.86 1554.55 2750.31 1552.17 2749.78 1549.11C2749.02 1544.77 2747.85 1540.72 2746.27 1536.96C2744.16 1531.57 2741.11 1526.94 2737.12 1523.07C2733.26 1519.21 2728.51 1516.22 2722.88 1514.11C2717.26 1512 2710.75 1510.94 2703.37 1510.94C2697.04 1510.94 2691.18 1511.76 2685.78 1513.4C2680.39 1515.04 2675.7 1517.45 2671.72 1520.61C2667.85 1523.78 2664.8 1527.59 2662.58 1532.04C2660.35 1536.49 2659.23 1541.53 2659.23 1547.16C2659.23 1553.14 2660.76 1558.36 2663.81 1562.81C2666.85 1567.15 2670.84 1570.96 2675.76 1574.24C2680.69 1577.52 2686.31 1580.39 2692.64 1582.85C2699.09 1585.2 2705.77 1587.37 2712.69 1589.36C2723.35 1592.52 2733.55 1596.45 2743.28 1601.14C2753.01 1605.71 2761.56 1611.28 2768.95 1617.84C2776.33 1624.29 2782.19 1631.79 2786.53 1640.35C2790.87 1648.9 2793.04 1658.69 2793.04 1669.71C2793.04 1681.08 2790.63 1691.1 2785.83 1699.78C2781.02 1708.45 2774.57 1715.72 2766.49 1721.58C2758.4 1727.44 2749.02 1731.89 2738.36 1734.94C2727.69 1737.87 2716.55 1739.34 2704.95 1739.34C2697.1 1739.34 2689.3 1738.57 2681.56 1737.05C2673.83 1735.53 2666.38 1733.24 2659.23 1730.19C2652.2 1727.15 2645.64 1723.39 2639.54 1718.94C2633.45 1714.37 2628.11 1709.15 2623.54 1703.29C2619.09 1697.31 2615.57 1690.69 2612.99 1683.42C2610.92 1677.48 2609.64 1671.08 2609.16 1664.22C2608.96 1661.44 2611.23 1659.16 2614.02 1659.16H2645.76C2648.9 1659.16 2651.47 1661.59 2651.96 1664.69C2652.81 1670.15 2654.3 1675.05 2656.42 1679.38C2659.23 1685.12 2662.99 1689.93 2667.67 1693.8C2672.36 1697.55 2677.81 1700.42 2684.03 1702.41C2690.36 1704.29 2697.33 1705.23 2704.95 1705.23C2711.28 1705.23 2717.2 1704.46 2722.71 1702.94C2728.22 1701.42 2733.02 1699.19 2737.12 1696.26C2741.23 1693.21 2744.45 1689.52 2746.79 1685.18C2749.14 1680.73 2750.31 1675.69 2750.31 1670.06Z" fill="black"/>
<path d="M401.198 1025.89C399.541 1025.89 398.198 1027.23 398.198 1028.89V1119C398.198 1121.76 395.959 1124 393.198 1124H361C358.239 1124 356 1121.76 356 1119V873.002C356 870.24 358.239 868.002 361 868.002H441.626C454.402 868.119 466.182 870.053 476.966 873.804C487.867 877.438 497.245 882.712 505.098 889.628C512.951 896.427 519.047 904.749 523.384 914.595C527.838 924.324 530.065 935.342 530.065 947.65C530.065 959.606 527.838 970.389 523.384 980.001C519.047 989.613 512.951 997.818 505.098 1004.62C497.245 1011.41 487.867 1016.63 476.966 1020.26C466.182 1023.9 454.402 1025.77 441.626 1025.89H401.198ZM398.198 988.781C398.198 990.438 399.541 991.781 401.198 991.781H441.626C448.776 991.781 455.164 990.726 460.791 988.616C466.417 986.389 471.223 983.342 475.208 979.474C479.193 975.606 482.241 970.976 484.351 965.584C486.461 960.192 487.516 954.331 487.516 948.001C487.516 941.32 486.461 935.166 484.351 929.54C482.241 923.914 479.193 919.108 475.208 915.122C471.223 911.02 466.417 907.855 460.791 905.628C455.164 903.401 448.776 902.229 441.626 902.112H401.198C399.541 902.112 398.198 903.455 398.198 905.112V988.781Z" fill="black"/>
<path d="M778.643 1012.53C778.643 1027.65 776.709 1042.18 772.841 1056.13C768.973 1069.96 763.171 1082.21 755.435 1092.88C747.816 1103.43 738.204 1111.87 726.6 1118.2C715.113 1124.41 701.633 1127.52 686.161 1127.52C670.805 1127.52 657.443 1124.35 646.073 1118.02C634.703 1111.69 625.209 1103.25 617.59 1092.7C610.088 1082.04 604.403 1069.79 600.535 1055.96C596.784 1042.13 594.908 1027.65 594.908 1012.53V979.825C594.908 969.745 595.729 959.899 597.37 950.287C599.128 940.675 601.648 931.65 604.93 923.21C608.329 914.654 612.491 906.8 617.414 899.65C622.454 892.383 628.315 886.17 634.996 881.013C641.794 875.855 649.413 871.811 657.853 868.881C666.41 865.951 675.787 864.485 685.985 864.485C701.457 864.485 714.937 867.65 726.424 873.98C738.028 880.309 747.699 888.808 755.435 899.474C763.171 910.024 768.973 922.273 772.841 936.221C776.709 950.17 778.643 964.705 778.643 979.825V1012.53ZM736.27 979.474C736.153 969.862 735.274 960.309 733.633 950.814C731.992 941.32 729.237 932.881 725.369 925.496C721.501 917.994 716.343 911.958 709.897 907.386C703.567 902.698 695.596 900.353 685.985 900.353C676.49 900.353 668.578 902.698 662.249 907.386C656.036 911.958 651.055 917.994 647.304 925.496C643.67 932.998 641.091 941.496 639.567 950.99C638.161 960.368 637.399 969.862 637.282 979.474V1012.53C637.399 1022.14 638.219 1031.69 639.743 1041.19C641.267 1050.56 643.846 1059.06 647.479 1066.68C651.23 1074.18 656.212 1080.28 662.424 1084.97C668.754 1089.66 676.666 1092 686.161 1092C695.772 1092 703.743 1089.66 710.072 1084.97C716.519 1080.28 721.677 1074.18 725.545 1066.68C729.413 1059.18 732.109 1050.68 733.633 1041.19C735.274 1031.69 736.153 1022.14 736.27 1012.53V979.474Z" fill="black"/>
<path d="M903.618 1086.54C903.618 1088.2 904.962 1089.54 906.618 1089.54H1020.64C1023.4 1089.54 1025.64 1091.78 1025.64 1094.54V1119C1025.64 1121.76 1023.4 1124 1020.64 1124H866.421C863.659 1124 861.421 1121.76 861.421 1119V873.002C861.421 870.24 863.659 868.002 866.421 868.002H898.618C901.38 868.002 903.618 870.24 903.618 873.002V1086.54Z" fill="black"/>
<path d="M1115.27 873.002C1115.27 870.24 1117.51 868.002 1120.27 868.002H1262.54C1265.3 868.002 1267.54 870.24 1267.54 873.002V897.991C1267.54 900.752 1265.3 902.991 1262.54 902.991H1215.15C1213.5 902.991 1212.15 904.334 1212.15 905.991V1086.19C1212.15 1087.84 1213.5 1089.19 1215.15 1089.19H1262.54C1265.3 1089.19 1267.54 1091.43 1267.54 1094.19V1119C1267.54 1121.76 1265.3 1124 1262.54 1124H1120.27C1117.51 1124 1115.27 1121.76 1115.27 1119V1094.19C1115.27 1091.43 1117.51 1089.19 1120.27 1089.19H1166.43C1168.08 1089.19 1169.43 1087.84 1169.43 1086.19V905.991C1169.43 904.334 1168.08 902.991 1166.43 902.991H1120.27C1117.51 902.991 1115.27 900.752 1115.27 897.991V873.002Z" fill="black"/>
<path d="M1543.19 897.815C1543.19 900.576 1540.95 902.815 1538.19 902.815H1467.6C1465.94 902.815 1464.6 904.158 1464.6 905.815V1119C1464.6 1121.76 1462.36 1124 1459.6 1124H1427.58C1424.82 1124 1422.58 1121.76 1422.58 1119V905.815C1422.58 904.158 1421.23 902.815 1419.58 902.815H1349.51C1346.75 902.815 1344.51 900.576 1344.51 897.815V873.002C1344.51 870.24 1346.75 868.002 1349.51 868.002H1538.19C1540.95 868.002 1543.19 870.24 1543.19 873.002V897.815Z" fill="black"/>
<path d="M1619.82 873.002C1619.82 870.24 1622.05 868.002 1624.82 868.002H1767.08C1769.84 868.002 1772.08 870.24 1772.08 873.002V897.991C1772.08 900.752 1769.84 902.991 1767.08 902.991H1719.69C1718.04 902.991 1716.69 904.334 1716.69 905.991V1086.19C1716.69 1087.84 1718.04 1089.19 1719.69 1089.19H1767.08C1769.84 1089.19 1772.08 1091.43 1772.08 1094.19V1119C1772.08 1121.76 1769.84 1124 1767.08 1124H1624.82C1622.05 1124 1619.82 1121.76 1619.82 1119V1094.19C1619.82 1091.43 1622.05 1089.19 1624.82 1089.19H1670.97C1672.63 1089.19 1673.97 1087.84 1673.97 1086.19V905.991C1673.97 904.334 1672.63 902.991 1670.97 902.991H1624.82C1622.05 902.991 1619.82 900.752 1619.82 897.991V873.002Z" fill="black"/>
<path d="M2029.89 1045.41C2032.25 1045.41 2034.11 1047.44 2033.8 1049.78C2032.4 1060.39 2029.63 1070.19 2025.5 1079.17C2020.81 1089.25 2014.6 1097.92 2006.86 1105.19C1999.13 1112.34 1989.99 1117.9 1979.44 1121.89C1969 1125.76 1957.34 1127.69 1944.45 1127.69C1928.86 1127.69 1915.26 1124.7 1903.66 1118.73C1892.05 1112.63 1882.38 1104.43 1874.65 1094.11C1866.91 1083.8 1861.11 1071.72 1857.24 1057.89C1853.37 1044.06 1851.38 1029.29 1851.26 1013.58V978.595C1851.38 963.005 1853.43 948.294 1857.42 934.463C1861.4 920.514 1867.26 908.383 1875 898.068C1882.85 887.635 1892.58 879.43 1904.18 873.452C1915.79 867.357 1929.27 864.31 1944.62 864.31C1958.1 864.31 1970.12 866.302 1980.67 870.288C1991.22 874.273 2000.24 879.899 2007.74 887.167C2015.25 894.434 2021.22 903.284 2025.68 913.716C2029.62 922.939 2032.32 933.078 2033.78 944.134C2034.09 946.482 2032.24 948.529 2029.87 948.529H1997.56C1994.46 948.529 1991.9 946.168 1991.44 943.105C1990.62 937.716 1989.38 932.725 1987.7 928.133C1985.59 921.921 1982.66 916.646 1978.91 912.309C1975.16 907.855 1970.41 904.456 1964.67 902.112C1959.04 899.767 1952.36 898.595 1944.62 898.595C1935.13 898.595 1927.16 900.764 1920.71 905.101C1914.26 909.437 1909.05 915.298 1905.06 922.683C1901.08 929.95 1898.21 938.39 1896.45 948.001C1894.81 957.613 1893.99 967.693 1893.99 978.243V1013.58C1893.99 1024.6 1894.81 1034.98 1896.45 1044.7C1898.21 1054.32 1901.02 1062.76 1904.89 1070.02C1908.76 1077.29 1913.91 1083.03 1920.36 1087.25C1926.81 1091.47 1934.84 1093.58 1944.45 1093.58C1959.22 1093.58 1970.47 1089.42 1978.21 1081.1C1985 1073.68 1989.36 1063.6 1991.27 1050.84C1991.73 1047.78 1994.29 1045.41 1997.4 1045.41H2029.89Z" fill="black"/>
<path d="M2226.11 1068.9C2225.37 1066.34 2223.02 1064.57 2220.35 1064.57H2149.34C2146.68 1064.57 2144.34 1066.32 2143.59 1068.87L2128.55 1119.7C2127.79 1122.25 2125.45 1124 2122.79 1124H2087.8C2085.76 1124 2084.32 1122.01 2084.95 1120.07L2165.49 872.148C2166.29 869.676 2168.6 868.002 2171.2 868.002H2199.55C2202.16 868.002 2204.47 869.691 2205.27 872.18L2284.27 1120.09C2284.89 1122.02 2283.44 1124 2281.41 1124H2246.6C2243.93 1124 2241.58 1122.24 2240.83 1119.67L2226.11 1068.9ZM2156.72 1024.68C2156.15 1026.6 2157.6 1028.53 2159.6 1028.53H2210.32C2212.32 1028.53 2213.76 1026.61 2213.2 1024.7L2187.2 934.703C2186.64 932.783 2183.92 932.774 2183.36 934.691L2156.72 1024.68Z" fill="black"/>
<path d="M1263.04 746.805L1172.43 799.072C1170.57 800.144 1169.43 802.125 1169.43 804.27V830.599C1169.43 832.908 1171.93 834.351 1173.93 833.198L1264.54 780.932C1266.4 779.86 1267.54 777.879 1267.54 775.734V749.404C1267.54 747.095 1265.04 745.652 1263.04 746.805Z" fill="black"/>
<path d="M356.169 261V506.998C356.169 509.76 358.407 511.998 361.169 511.998H393.31C396.072 511.998 398.31 509.76 398.31 506.998V261C398.31 258.239 396.072 256 393.31 256H361.169C358.407 256 356.169 258.239 356.169 261Z" fill="black"/>
<path d="M473.08 304.23L260.329 427.224C257.938 428.606 257.118 431.666 258.498 434.058L274.573 461.939C275.953 464.332 279.009 465.15 281.4 463.768L494.151 340.774C496.542 339.392 497.361 336.332 495.982 333.94L479.906 306.059C478.527 303.667 475.471 302.848 473.08 304.23Z" fill="black"/>
<path d="M494.151 427.224L281.4 304.23C279.009 302.848 275.953 303.667 274.574 306.059L258.498 333.94C257.118 336.332 257.938 339.392 260.329 340.774L473.08 463.768C475.471 465.15 478.527 464.331 479.906 461.939L495.982 434.058C497.362 431.666 496.542 428.606 494.151 427.224Z" fill="black"/>
</svg>
