<svg width="33" height="28" viewBox="0 0 33 28" fill="none" xmlns="http://www.w3.org/2000/svg">
<path d="M10.9941 5.8314V26.7778C10.9941 27.3314 10.7262 27.8493 10.1191 27.8493C9.9048 27.8493 9.70837 27.7957 9.5298 27.7064L1.22623 23.5457C0.726232 23.2957 0.333374 22.6528 0.333374 22.1171V1.75997C0.333374 1.31355 0.547659 0.902832 1.0298 0.902832C1.31552 0.902832 1.56552 1.04569 1.81552 1.17069L10.9405 5.74212C10.9584 5.75998 10.9941 5.81355 10.9941 5.8314ZM12.1369 7.63497L21.6727 23.0993L12.1369 18.3493V7.63497ZM32.3334 7.9564V26.7778C32.3334 27.3671 31.9941 27.7778 31.4048 27.7778C31.1012 27.7778 30.8155 27.6885 30.5655 27.5457L22.6905 23.6171L32.3334 7.9564ZM32.2798 5.81355C32.2798 5.88497 23.0477 20.8671 22.3334 22.01L15.3691 10.6885L21.1548 1.27783C21.3512 0.956403 21.7084 0.777832 22.0834 0.777832C22.2441 0.777832 22.4048 0.813546 22.5477 0.884974L32.2084 5.7064C32.2441 5.72426 32.2798 5.75997 32.2798 5.81355Z" fill="#EEEEEE"/>
</svg>
