<svg width="33" height="26" viewBox="0 0 33 26" fill="none" xmlns="http://www.w3.org/2000/svg">
<path d="M32.1111 8.66281V22.8414C32.1111 24.4128 30.8254 25.6985 29.2539 25.6985H2.96823C1.3968 25.6985 0.111084 24.4128 0.111084 22.8414V8.66281C0.646798 9.25209 1.25394 9.76995 1.91466 10.2164C4.87894 12.2342 7.87894 14.2521 10.7897 16.3771C12.2897 17.4842 14.1468 18.8414 16.0932 18.8414H16.1289C18.0754 18.8414 19.9325 17.4842 21.4325 16.3771C24.3432 14.2699 27.3432 12.2342 30.3254 10.2164C30.9682 9.76995 31.5754 9.25209 32.1111 8.66281ZM32.1111 3.41281C32.1111 5.41281 30.6289 7.21638 29.0575 8.30566C26.2718 10.2342 23.4682 12.1628 20.7004 14.1092C19.5397 14.9128 17.5754 16.5557 16.1289 16.5557H16.0932C14.6468 16.5557 12.6825 14.9128 11.5218 14.1092C8.75394 12.1628 5.95037 10.2342 3.18251 8.30566C1.91465 7.44852 0.111084 5.43066 0.111084 3.80566C0.111084 2.05566 1.05751 0.555664 2.96823 0.555664H29.2539C30.8075 0.555664 32.1111 1.84138 32.1111 3.41281Z" fill="#EEEEEE"/>
</svg>
