<svg width="32" height="28" viewBox="0 0 32 28" fill="none" xmlns="http://www.w3.org/2000/svg">
<path d="M32 3.72233C31.1066 5.05566 29.9898 6.24316 28.7107 7.2015C28.731 7.49316 28.731 7.78483 28.731 8.0765C28.731 16.9723 22.132 27.2223 10.0711 27.2223C6.35533 27.2223 2.90355 26.1182 0 24.2015C0.527919 24.264 1.03553 24.2848 1.58376 24.2848C4.64975 24.2848 7.47208 23.2223 9.72589 21.4098C6.84264 21.3473 4.4264 19.4098 3.59391 16.7432C4 16.8057 4.40609 16.8473 4.83249 16.8473C5.42132 16.8473 6.01015 16.764 6.55837 16.6182C3.5533 15.9932 1.29949 13.2848 1.29949 10.014C1.29949 9.99317 1.29949 9.9515 1.29949 9.93067C2.17259 10.4307 3.18782 10.7432 4.26396 10.7848C2.49746 9.5765 1.3401 7.514 1.3401 5.18066C1.3401 3.93066 1.66497 2.78483 2.2335 1.78483C5.46193 5.86816 10.3147 8.53483 15.7563 8.8265C15.6548 8.3265 15.5939 7.80566 15.5939 7.28483C15.5939 3.5765 18.5178 0.555664 22.1523 0.555664C24.0406 0.555664 25.7462 1.36816 26.9442 2.68066C28.4264 2.389 29.8477 1.8265 31.1066 1.05566C30.6193 2.61816 29.5838 3.93066 28.2234 4.764C29.5431 4.61816 30.8223 4.24316 32 3.72233Z" fill="#EEEEEE"/>
</svg>
